<svg xmlns="http://www.w3.org/2000/svg" viewBox="0 0 220 220">
    <defs>
      <linearGradient id="sky" x1="0" x2="1">
        <stop offset="0%" stop-color="#fff8e8"/>
        <stop offset="100%" stop-color="#eef8f2"/>
      </linearGradient>
    </defs>
    <rect width="220" height="220" rx="52" fill="url(#sky)"/>
    <rect x="38" y="52" width="144" height="78" rx="18" fill="#ffffff" stroke="#dfeee6" stroke-width="2"/>
    <rect x="38" y="52" width="144" height="26" fill="#ff9933"/>
    <rect x="38" y="78" width="144" height="26" fill="#ffffff"/>
    <rect x="38" y="104" width="144" height="26" fill="#138808"/>
    <circle cx="110" cy="91" r="12" fill="none" stroke="#0b3d91" stroke-width="2.7"/>
    <g stroke="#0b3d91" stroke-width="1.8" opacity="0.9">
      <line x1="110" y1="72" x2="110" y2="110"/>
      <line x1="89" y1="91" x2="131" y2="91"/>
      <line x1="95" y1="76" x2="125" y2="106"/>
      <line x1="125" y1="76" x2="95" y2="106"/>
    </g>
    <path d="M56 157c13-10 25-16 33-17 12 0 20 5 34 16 15 12 26 18 37 18 18 0 31-8 44-23" fill="none" stroke="#29a56a" stroke-width="8" stroke-linecap="round"/>
    <path d="M62 172c13-21 29-31 48-31s35 10 48 31" fill="none" stroke="#f0b856" stroke-width="7" stroke-linecap="round"/>
  </svg>
  