<svg xmlns="http://www.w3.org/2000/svg" viewBox="0 0 220 220">
    <defs>
      <linearGradient id="bg" x1="0" x2="1">
        <stop offset="0%" stop-color="#f5f6ff"/>
        <stop offset="100%" stop-color="#f4fbff"/>
      </linearGradient>
    </defs>
    <rect width="220" height="220" rx="52" fill="url(#bg)"/>
    <path d="M110 52c-22 0-40 17-40 40 0 20 15 33 40 33s40-13 40-33c0-23-18-40-40-40z" fill="#7b6ee6"/>
    <path d="M96 122h28v48H96z" fill="#7b6ee6"/>
    <path d="M76 150h68v18H76z" fill="#7b6ee6"/>
    <path d="M90 104c8 5 16 8 20 8s12-3 20-8" fill="none" stroke="#ffffff" stroke-width="6" stroke-linecap="round"/>
    <path d="M68 170c16-14 31-21 42-21 11 0 26 7 42 21" fill="none" stroke="#7b6ee6" stroke-width="8" stroke-linecap="round"/>
  </svg>
  